<?xml version="1.0" standalone="no"?>
<!DOCTYPE svg PUBLIC "-//W3C//DTD SVG 20010904//EN"
 "http://www.w3.org/TR/2001/REC-SVG-20010904/DTD/svg10.dtd">
<svg version="1.0" xmlns="http://www.w3.org/2000/svg"
 width="345.000000pt" height="345.000000pt" viewBox="0 0 345.000000 345.000000"
 preserveAspectRatio="xMidYMid meet">
<metadata>
Created by potrace 1.11, written by Peter Selinger 2001-2013
</metadata>
<g transform="translate(0.000000,345.000000) scale(0.100000,-0.100000)"
fill="#000000" stroke="none">
<path d="M849 3266 c-2 -2 -26 -7 -53 -10 -233 -28 -502 -199 -633 -404 -70
-108 -129 -276 -148 -412 -7 -55 -8 -250 -1 -282 3 -13 8 -39 11 -58 2 -19 7
-45 10 -57 3 -13 7 -33 10 -45 27 -125 132 -358 229 -507 119 -182 226 -312
421 -506 264 -264 568 -504 910 -719 l123 -77 89 54 c149 91 481 326 583 413
14 12 72 62 130 111 408 350 706 735 835 1078 57 149 78 268 79 430 1 223 -19
321 -101 491 -80 164 -227 311 -398 397 -71 36 -200 81 -265 92 -76 14 -276
14 -350 0 -231 -41 -439 -166 -567 -338 l-35 -47 -31 42 c-110 154 -295 276
-497 328 -78 20 -337 39 -351 26z"/>
</g>
</svg>
